<?xml version="1.0" encoding="UTF-8" standalone="no"?><svg xmlns="http://www.w3.org/2000/svg" xmlns:xlink="http://www.w3.org/1999/xlink" contentStyleType="text/css" height="820px" preserveAspectRatio="none" style="width:3763px;height:820px;background:#FFFFFF;" version="1.1" viewBox="0 0 3763 820" width="3763px" zoomAndPan="magnify"><defs/><g><!--MD5=[8ef8a0d5c9ecdf6f0f57e9259ee7cbfe]
cluster UserMicroservice--><g id="cluster_UserMicroservice"><rect fill="none" height="219" rx="2.5" ry="2.5" style="stroke:#181818;stroke-width:1.0;" width="148" x="137" y="308.5"/><rect fill="none" height="10" style="stroke:#181818;stroke-width:1.0;" width="15" x="265" y="313.5"/><rect fill="none" height="2" style="stroke:#181818;stroke-width:1.0;" width="4" x="263" y="315.5"/><rect fill="none" height="2" style="stroke:#181818;stroke-width:1.0;" width="4" x="263" y="319.5"/><text fill="#000000" font-family="sans-serif" font-size="14" font-weight="bold" lengthAdjust="spacing" textLength="138" x="142" y="334.4951">UserMicroservice</text></g><!--MD5=[c52c3a89d9407a50d33c9ef8d6d67390]
cluster OrderMicroservice--><g id="cluster_OrderMicroservice"><rect fill="none" height="260.5" rx="2.5" ry="2.5" style="stroke:#181818;stroke-width:1.0;" width="690" x="992" y="444"/><rect fill="none" height="10" style="stroke:#181818;stroke-width:1.0;" width="15" x="1662" y="449"/><rect fill="none" height="2" style="stroke:#181818;stroke-width:1.0;" width="4" x="1660" y="451"/><rect fill="none" height="2" style="stroke:#181818;stroke-width:1.0;" width="4" x="1660" y="455"/><text fill="#000000" font-family="sans-serif" font-size="14" font-weight="bold" lengthAdjust="spacing" textLength="147" x="1263.5" y="469.9951">OrderMicroservice</text></g><!--MD5=[4523f918a499262345e8d765b0fe948b]
cluster Order--><g id="cluster_Order"><rect fill="none" height="186.5" rx="2.5" ry="2.5" style="stroke:#181818;stroke-width:1.0;" width="75" x="1218" y="494"/><rect fill="none" height="10" style="stroke:#181818;stroke-width:1.0;" width="15" x="1273" y="499"/><rect fill="none" height="2" style="stroke:#181818;stroke-width:1.0;" width="4" x="1271" y="501"/><rect fill="none" height="2" style="stroke:#181818;stroke-width:1.0;" width="4" x="1271" y="505"/><text fill="#000000" font-family="sans-serif" font-size="14" font-weight="bold" lengthAdjust="spacing" textLength="45" x="1233" y="519.9951">Order</text></g><!--MD5=[d7896ef9e6928ca203199e22858e64e3]
cluster Coupons--><g id="cluster_Coupons"><rect fill="none" height="186.5" rx="2.5" ry="2.5" style="stroke:#181818;stroke-width:1.0;" width="87.5" x="1326" y="494"/><rect fill="none" height="10" style="stroke:#181818;stroke-width:1.0;" width="15" x="1393.5" y="499"/><rect fill="none" height="2" style="stroke:#181818;stroke-width:1.0;" width="4" x="1391.5" y="501"/><rect fill="none" height="2" style="stroke:#181818;stroke-width:1.0;" width="4" x="1391.5" y="505"/><text fill="#000000" font-family="sans-serif" font-size="14" font-weight="bold" lengthAdjust="spacing" textLength="69" x="1335.25" y="519.9951">Coupons</text></g><!--MD5=[70cce3bd32fadf6342a9da5560aeef30]
cluster StoreMicroservice--><g id="cluster_StoreMicroservice"><rect fill="none" height="186.5" rx="2.5" ry="2.5" style="stroke:#181818;stroke-width:1.0;" width="156" x="1016" y="494"/><rect fill="none" height="10" style="stroke:#181818;stroke-width:1.0;" width="15" x="1152" y="499"/><rect fill="none" height="2" style="stroke:#181818;stroke-width:1.0;" width="4" x="1150" y="501"/><rect fill="none" height="2" style="stroke:#181818;stroke-width:1.0;" width="4" x="1150" y="505"/><text fill="#000000" font-family="sans-serif" font-size="14" font-weight="bold" lengthAdjust="spacing" textLength="146" x="1021" y="519.9951">StoreMicroservice</text></g><!--MD5=[c2ca7467a48516c9ace4ba7544635986]
cluster FoodMicroservice--><g id="cluster_FoodMicroservice"><rect fill="none" height="365" rx="2.5" ry="2.5" style="stroke:#181818;stroke-width:1.0;" width="717.5" x="2310" y="179"/><rect fill="none" height="10" style="stroke:#181818;stroke-width:1.0;" width="15" x="3007.5" y="184"/><rect fill="none" height="2" style="stroke:#181818;stroke-width:1.0;" width="4" x="3005.5" y="186"/><rect fill="none" height="2" style="stroke:#181818;stroke-width:1.0;" width="4" x="3005.5" y="190"/><text fill="#000000" font-family="sans-serif" font-size="14" font-weight="bold" lengthAdjust="spacing" textLength="141" x="2598.25" y="204.9951">FoodMicroservice</text></g><!--MD5=[56c82aa91cf6f14524227ff5f2aa6264]
cluster Food--><g id="cluster_Food"><rect fill="none" height="265" rx="2.5" ry="2.5" style="stroke:#181818;stroke-width:1.0;" width="158" x="2627" y="229"/><rect fill="none" height="10" style="stroke:#181818;stroke-width:1.0;" width="15" x="2765" y="234"/><rect fill="none" height="2" style="stroke:#181818;stroke-width:1.0;" width="4" x="2763" y="236"/><rect fill="none" height="2" style="stroke:#181818;stroke-width:1.0;" width="4" x="2763" y="240"/><text fill="#000000" font-family="sans-serif" font-size="14" font-weight="bold" lengthAdjust="spacing" textLength="39" x="2686.5" y="254.9951">Food</text></g><!--MD5=[0aeb7c8c5449662bad4ee2c1b62ec85c]
cluster Ingredient--><g id="cluster_Ingredient"><rect fill="none" height="265" rx="2.5" ry="2.5" style="stroke:#181818;stroke-width:1.0;" width="192" x="2384" y="229"/><rect fill="none" height="10" style="stroke:#181818;stroke-width:1.0;" width="15" x="2556" y="234"/><rect fill="none" height="2" style="stroke:#181818;stroke-width:1.0;" width="4" x="2554" y="236"/><rect fill="none" height="2" style="stroke:#181818;stroke-width:1.0;" width="4" x="2554" y="240"/><text fill="#000000" font-family="sans-serif" font-size="14" font-weight="bold" lengthAdjust="spacing" textLength="83" x="2438.5" y="254.9951">Ingredient</text></g><!--MD5=[77bacb9ec87c691a0e98ee8c22506a35]
cluster AuthenticationMicroservice--><g id="cluster_AuthenticationMicroservice"><rect fill="none" height="194.5" rx="2.5" ry="2.5" style="stroke:#181818;stroke-width:1.0;" width="240" x="481" y="494"/><rect fill="none" height="10" style="stroke:#181818;stroke-width:1.0;" width="15" x="701" y="499"/><rect fill="none" height="2" style="stroke:#181818;stroke-width:1.0;" width="4" x="699" y="501"/><rect fill="none" height="2" style="stroke:#181818;stroke-width:1.0;" width="4" x="699" y="505"/><text fill="#000000" font-family="sans-serif" font-size="14" font-weight="bold" lengthAdjust="spacing" textLength="225" x="488.5" y="519.9951">AuthenticationMicroservice</text></g><text fill="#000000" font-family="sans-serif" font-size="14" lengthAdjust="spacing" textLength="98" x="194.5" y="287.1982">userDatabase</text><rect fill="#F1F1F1" height="12" style="stroke:#181818;stroke-width:1.5;" width="12" x="237.5" y="302.5"/><!--MD5=[51799715f92f8cd7406bb4ed89ec4827]
entity UserDatabase--><g id="elem_UserDatabase"><rect fill="#F1F1F1" height="62.5938" rx="2.5" ry="2.5" style="stroke:#181818;stroke-width:0.5;" width="139" x="174.5" y="100"/><rect fill="#F1F1F1" height="10" style="stroke:#181818;stroke-width:0.5;" width="15" x="293.5" y="105"/><rect fill="#F1F1F1" height="2" style="stroke:#181818;stroke-width:0.5;" width="4" x="291.5" y="107"/><rect fill="#F1F1F1" height="2" style="stroke:#181818;stroke-width:0.5;" width="4" x="291.5" y="111"/><text fill="#000000" font-family="sans-serif" font-size="14" font-style="italic" lengthAdjust="spacing" textLength="84" x="197" y="132.9951">«database»</text><text fill="#000000" font-family="sans-serif" font-size="14" lengthAdjust="spacing" textLength="99" x="189.5" y="149.292">UserDatabase</text></g><text fill="#000000" font-family="sans-serif" font-size="14" lengthAdjust="spacing" textLength="94" x="1635" y="556.6982">orderOutside</text><rect fill="#F1F1F1" height="12" style="stroke:#181818;stroke-width:1.5;" width="12" x="1676" y="572"/><text fill="#000000" font-family="sans-serif" font-size="14" lengthAdjust="spacing" textLength="107" x="1221.5" y="472.6982">orderDatabase</text><rect fill="#F1F1F1" height="12" style="stroke:#181818;stroke-width:1.5;" width="12" x="1269" y="488"/><text fill="#000000" font-family="sans-serif" font-size="14" lengthAdjust="spacing" textLength="128" x="1331.5" y="472.6982">couponsDatabase</text><rect fill="#F1F1F1" height="12" style="stroke:#181818;stroke-width:1.5;" width="12" x="1389.5" y="488"/><text fill="#000000" font-family="sans-serif" font-size="14" lengthAdjust="spacing" textLength="106" x="1066.5" y="472.6982">storeDatabase</text><rect fill="#F1F1F1" height="12" style="stroke:#181818;stroke-width:1.5;" width="12" x="1113.5" y="488"/><!--MD5=[015311e04316e0c3607189a0167c67b5]
entity OrderDatabase--><g id="elem_OrderDatabase"><rect fill="#F1F1F1" height="62.5938" rx="2.5" ry="2.5" style="stroke:#181818;stroke-width:0.5;" width="149" x="1199.5" y="277"/><rect fill="#F1F1F1" height="10" style="stroke:#181818;stroke-width:0.5;" width="15" x="1328.5" y="282"/><rect fill="#F1F1F1" height="2" style="stroke:#181818;stroke-width:0.5;" width="4" x="1326.5" y="284"/><rect fill="#F1F1F1" height="2" style="stroke:#181818;stroke-width:0.5;" width="4" x="1326.5" y="288"/><text fill="#000000" font-family="sans-serif" font-size="14" font-style="italic" lengthAdjust="spacing" textLength="84" x="1227" y="309.9951">«database»</text><text fill="#000000" font-family="sans-serif" font-size="14" lengthAdjust="spacing" textLength="109" x="1214.5" y="326.292">OrderDatabase</text></g><!--MD5=[711bb1a6945a12424700804efd3aa23e]
entity CouponsDatabase--><g id="elem_CouponsDatabase"><rect fill="#F1F1F1" height="62.5938" rx="2.5" ry="2.5" style="stroke:#181818;stroke-width:0.5;" width="170" x="1354" y="277"/><rect fill="#F1F1F1" height="10" style="stroke:#181818;stroke-width:0.5;" width="15" x="1504" y="282"/><rect fill="#F1F1F1" height="2" style="stroke:#181818;stroke-width:0.5;" width="4" x="1502" y="284"/><rect fill="#F1F1F1" height="2" style="stroke:#181818;stroke-width:0.5;" width="4" x="1502" y="288"/><text fill="#000000" font-family="sans-serif" font-size="14" font-style="italic" lengthAdjust="spacing" textLength="84" x="1392" y="309.9951">«database»</text><text fill="#000000" font-family="sans-serif" font-size="14" lengthAdjust="spacing" textLength="130" x="1369" y="326.292">CouponsDatabase</text></g><!--MD5=[9e2f98d4fcff3c8056a8254eaf67cca2]
entity StoreDatabase--><g id="elem_StoreDatabase"><rect fill="#F1F1F1" height="62.5938" rx="2.5" ry="2.5" style="stroke:#181818;stroke-width:0.5;" width="148" x="1046" y="277"/><rect fill="#F1F1F1" height="10" style="stroke:#181818;stroke-width:0.5;" width="15" x="1174" y="282"/><rect fill="#F1F1F1" height="2" style="stroke:#181818;stroke-width:0.5;" width="4" x="1172" y="284"/><rect fill="#F1F1F1" height="2" style="stroke:#181818;stroke-width:0.5;" width="4" x="1172" y="288"/><text fill="#000000" font-family="sans-serif" font-size="14" font-style="italic" lengthAdjust="spacing" textLength="84" x="1073" y="309.9951">«database»</text><text fill="#000000" font-family="sans-serif" font-size="14" lengthAdjust="spacing" textLength="108" x="1061" y="326.292">StoreDatabase</text></g><text fill="#000000" font-family="sans-serif" font-size="14" lengthAdjust="spacing" textLength="88" x="2983.5" y="287.1982">outsideFood</text><rect fill="#F1F1F1" height="12" style="stroke:#181818;stroke-width:1.5;" width="12" x="3021.5" y="302.5"/><text fill="#000000" font-family="sans-serif" font-size="14" lengthAdjust="spacing" textLength="101" x="2609.5" y="207.6982">foodDatabase</text><rect fill="#F1F1F1" height="12" style="stroke:#181818;stroke-width:1.5;" width="12" x="2654" y="223"/><text fill="#000000" font-family="sans-serif" font-size="14" lengthAdjust="spacing" textLength="61" x="2736.5" y="512.9951">addFood</text><rect fill="#F1F1F1" height="12" style="stroke:#181818;stroke-width:1.5;" width="12" x="2761" y="488"/><text fill="#000000" font-family="sans-serif" font-size="14" lengthAdjust="spacing" textLength="78" x="2606" y="512.9951">getAllFood</text><rect fill="#F1F1F1" height="12" style="stroke:#181818;stroke-width:1.5;" width="12" x="2639" y="488"/><text fill="#000000" font-family="sans-serif" font-size="14" lengthAdjust="spacing" textLength="143" x="2342" y="207.6982">ingredientDatabase</text><rect fill="#F1F1F1" height="12" style="stroke:#181818;stroke-width:1.5;" width="12" x="2407.5" y="223"/><text fill="#000000" font-family="sans-serif" font-size="14" lengthAdjust="spacing" textLength="101" x="2507.5" y="512.9951">addIngredient</text><rect fill="#F1F1F1" height="12" style="stroke:#181818;stroke-width:1.5;" width="12" x="2552" y="488"/><text fill="#000000" font-family="sans-serif" font-size="14" lengthAdjust="spacing" textLength="125" x="2339.5" y="512.9951">getAllIngredients</text><rect fill="#F1F1F1" height="12" style="stroke:#181818;stroke-width:1.5;" width="12" x="2396" y="488"/><!--MD5=[efc9eb5d15d1a81e7f9a176ecd3e421c]
entity FoodDatabase--><g id="elem_FoodDatabase"><rect fill="#F1F1F1" height="62.5938" rx="2.5" ry="2.5" style="stroke:#181818;stroke-width:0.5;" width="143" x="2588.5" y="7"/><rect fill="#F1F1F1" height="10" style="stroke:#181818;stroke-width:0.5;" width="15" x="2711.5" y="12"/><rect fill="#F1F1F1" height="2" style="stroke:#181818;stroke-width:0.5;" width="4" x="2709.5" y="14"/><rect fill="#F1F1F1" height="2" style="stroke:#181818;stroke-width:0.5;" width="4" x="2709.5" y="18"/><text fill="#000000" font-family="sans-serif" font-size="14" font-style="italic" lengthAdjust="spacing" textLength="84" x="2613" y="39.9951">«database»</text><text fill="#000000" font-family="sans-serif" font-size="14" lengthAdjust="spacing" textLength="103" x="2603.5" y="56.292">FoodDatabase</text></g><!--MD5=[7980362c594afa5beac88a2c9f8ccf54]
entity IngredientDatabase--><g id="elem_IngredientDatabase"><rect fill="#F1F1F1" height="62.5938" rx="2.5" ry="2.5" style="stroke:#181818;stroke-width:0.5;" width="183" x="2322.5" y="7"/><rect fill="#F1F1F1" height="10" style="stroke:#181818;stroke-width:0.5;" width="15" x="2485.5" y="12"/><rect fill="#F1F1F1" height="2" style="stroke:#181818;stroke-width:0.5;" width="4" x="2483.5" y="14"/><rect fill="#F1F1F1" height="2" style="stroke:#181818;stroke-width:0.5;" width="4" x="2483.5" y="18"/><text fill="#000000" font-family="sans-serif" font-size="14" font-style="italic" lengthAdjust="spacing" textLength="84" x="2367" y="39.9951">«database»</text><text fill="#000000" font-family="sans-serif" font-size="14" lengthAdjust="spacing" textLength="143" x="2337.5" y="56.292">IngredientDatabase</text></g><text fill="#000000" font-family="sans-serif" font-size="14" lengthAdjust="spacing" textLength="174" x="616" y="472.6982">authenticationDatabase</text><rect fill="#F1F1F1" height="12" style="stroke:#181818;stroke-width:1.5;" width="12" x="697" y="488"/><!--MD5=[8daf295266eb9819eef1e9e8d8a743f1]
entity AuthenticationDatabase--><g id="elem_AuthenticationDatabase"><rect fill="#F1F1F1" height="62.5938" rx="2.5" ry="2.5" style="stroke:#181818;stroke-width:0.5;" width="216" x="698" y="751.5"/><rect fill="#F1F1F1" height="10" style="stroke:#181818;stroke-width:0.5;" width="15" x="894" y="756.5"/><rect fill="#F1F1F1" height="2" style="stroke:#181818;stroke-width:0.5;" width="4" x="892" y="758.5"/><rect fill="#F1F1F1" height="2" style="stroke:#181818;stroke-width:0.5;" width="4" x="892" y="762.5"/><text fill="#000000" font-family="sans-serif" font-size="14" font-style="italic" lengthAdjust="spacing" textLength="84" x="759" y="784.4951">«database»</text><text fill="#000000" font-family="sans-serif" font-size="14" lengthAdjust="spacing" textLength="176" x="713" y="800.792">AuthenticationDatabase</text></g><!--MD5=[dd194c52e991b936024170efa146e975]
entity createUser--><g id="elem_createUser"><ellipse cx="45" cy="655" fill="#F1F1F1" rx="8" ry="8" style="stroke:#181818;stroke-width:0.5;"/><text fill="#000000" font-family="sans-serif" font-size="14" lengthAdjust="spacing" textLength="78" x="6" y="684.9951">createUser</text></g><!--MD5=[004473f93a03b07f47d6818dcf93c7f4]
entity deleteUser--><g id="elem_deleteUser"><ellipse cx="144" cy="655" fill="#F1F1F1" rx="8" ry="8" style="stroke:#181818;stroke-width:0.5;"/><text fill="#000000" font-family="sans-serif" font-size="14" lengthAdjust="spacing" textLength="78" x="105" y="684.9951">deleteUser</text></g><!--MD5=[78b905f624aefcde59e4dad930650b77]
entity changeAllergies--><g id="elem_changeAllergies"><ellipse cx="261" cy="655" fill="#F1F1F1" rx="8" ry="8" style="stroke:#181818;stroke-width:0.5;"/><text fill="#000000" font-family="sans-serif" font-size="14" lengthAdjust="spacing" textLength="114" x="204" y="684.9951">changeAllergies</text></g><!--MD5=[aac4ece375456dce0d0e7a35416b2328]
entity createOrder--><g id="elem_createOrder"><ellipse cx="3450" cy="38.5" fill="#F1F1F1" rx="8" ry="8" style="stroke:#181818;stroke-width:0.5;"/><text fill="#000000" font-family="sans-serif" font-size="14" lengthAdjust="spacing" textLength="88" x="3406" y="68.4951">createOrder</text></g><!--MD5=[cca422000059121d08a2d6feb0ba9f25]
entity deleteOrder--><g id="elem_deleteOrder"><ellipse cx="3589" cy="38.5" fill="#F1F1F1" rx="8" ry="8" style="stroke:#181818;stroke-width:0.5;"/><text fill="#000000" font-family="sans-serif" font-size="14" lengthAdjust="spacing" textLength="88" x="3545" y="68.4951">deleteOrder</text></g><!--MD5=[f01a8a7880d4c42865265f725bfcc82e]
entity getOrders--><g id="elem_getOrders"><ellipse cx="3720" cy="38.5" fill="#F1F1F1" rx="8" ry="8" style="stroke:#181818;stroke-width:0.5;"/><text fill="#000000" font-family="sans-serif" font-size="14" lengthAdjust="spacing" textLength="73" x="3683.5" y="68.4951">getOrders</text></g><!--MD5=[637a52a1973bad95a648424e0daaa44d]
entity getAllOrders--><g id="elem_getAllOrders"><ellipse cx="3310" cy="38.5" fill="#F1F1F1" rx="8" ry="8" style="stroke:#181818;stroke-width:0.5;"/><text fill="#000000" font-family="sans-serif" font-size="14" lengthAdjust="spacing" textLength="91" x="3264.5" y="68.4951">getAllOrders</text></g><!--MD5=[1dbfc231d713dda34c8422fd8bda9dc7]
entity addFoodInterface--><g id="elem_addFoodInterface"><ellipse cx="3150" cy="494" fill="#F1F1F1" rx="8" ry="8" style="stroke:#181818;stroke-width:0.5;"/><text fill="#000000" font-family="sans-serif" font-size="14" lengthAdjust="spacing" textLength="127" x="3086.5" y="523.9951">addFoodInterface</text></g><!--MD5=[9c4e1c73313a8be6a01d9c12967e07ca]
entity addIngredientInterface--><g id="elem_addIngredientInterface"><ellipse cx="1827" cy="494" fill="#F1F1F1" rx="8" ry="8" style="stroke:#181818;stroke-width:0.5;"/><text fill="#000000" font-family="sans-serif" font-size="14" lengthAdjust="spacing" textLength="167" x="1743.5" y="523.9951">addIngredientInterface</text></g><!--MD5=[8ebb8f030c15267f7a5a6c857a94b642]
entity getAllFoodInterface--><g id="elem_getAllFoodInterface"><ellipse cx="2003" cy="494" fill="#F1F1F1" rx="8" ry="8" style="stroke:#181818;stroke-width:0.5;"/><text fill="#000000" font-family="sans-serif" font-size="14" lengthAdjust="spacing" textLength="144" x="1931" y="523.9951">getAllFoodInterface</text></g><!--MD5=[8074eaba276eca8c1e6509aca5d06c8c]
entity getAllIngredientsInterface--><g id="elem_getAllIngredientsInterface"><ellipse cx="2191" cy="494" fill="#F1F1F1" rx="8" ry="8" style="stroke:#181818;stroke-width:0.5;"/><text fill="#000000" font-family="sans-serif" font-size="14" lengthAdjust="spacing" textLength="191" x="2095.5" y="523.9951">getAllIngredientsInterface</text></g><!--MD5=[808647ed020e2733b934cf84c3c72675]
entity getAllStores--><g id="elem_getAllStores"><ellipse cx="3156" cy="399" fill="#F1F1F1" rx="8" ry="8" style="stroke:#181818;stroke-width:0.5;"/><text fill="#000000" font-family="sans-serif" font-size="14" lengthAdjust="spacing" textLength="90" x="3111" y="428.9951">getAllStores</text></g><!--MD5=[d6f0b20b94267296f79b519a1a25b8e9]
entity addStore--><g id="elem_addStore"><ellipse cx="3285" cy="399" fill="#F1F1F1" rx="8" ry="8" style="stroke:#181818;stroke-width:0.5;"/><text fill="#000000" font-family="sans-serif" font-size="14" lengthAdjust="spacing" textLength="66" x="3252" y="428.9951">addStore</text></g><!--MD5=[cc1052a61161676c141304f5c01d524d]
reverse link UserDatabase to userDatabase--><g id="link_UserDatabase_userDatabase"><path d="M244,168.585 C244,212.365 244,282.755 244,302.313 " fill="none" id="UserDatabase-backto-userDatabase" style="stroke:#181818;stroke-width:1.0;stroke-dasharray:7.0,7.0;"/><polygon fill="#181818" points="244,163.384,240,172.384,244,168.384,248,172.384,244,163.384" style="stroke:#181818;stroke-width:1.0;"/><text fill="#000000" font-family="sans-serif" font-size="13" lengthAdjust="spacing" textLength="70" x="245" y="233.5669">save users</text></g><!--MD5=[d4d22780e8c945a8269801570276c2d0]
link UserMicroservice to createUser--><g id="link_UserMicroservice_createUser"><path d="M198.3768,527.643 C198.15,527.8299 197.9226,528.0173 197.6945,528.2052 C197.2382,528.5811 196.7795,528.959 196.3182,529.3391 C194.473,530.8592 192.5878,532.4123 190.6672,533.9945 C175.3021,546.6528 157.6677,561.1807 140.0954,575.6574 C104.9508,604.6108 70.0546,633.3595 54.058,646.538 " fill="none" id="UserMicroservice-createUser" style="stroke:#181818;stroke-width:1.0;"/></g><!--MD5=[dcdc7723cc25c130ea16e3183f573d40]
link UserMicroservice to deleteUser--><g id="link_UserMicroservice_deleteUser"><path d="M218.5348,527.925 C218.3153,528.2963 218.0945,528.6698 217.8725,529.0452 C216.9846,530.5471 216.0775,532.0816 215.1532,533.645 C207.7589,546.1523 199.2694,560.5122 190.7891,574.8566 C173.8285,603.5455 156.9045,632.1725 148.852,645.793 " fill="none" id="UserMicroservice-deleteUser" style="stroke:#181818;stroke-width:1.0;"/></g><!--MD5=[466260d6bbeb0589e7059e9273dbbf9b]
link UserMicroservice to changeAllergies--><g id="link_UserMicroservice_changeAllergies"><path d="M242.763,527.925 C242.8167,528.2963 242.8707,528.6698 242.925,529.0452 C243.1423,530.5471 243.3642,532.0816 243.5904,533.645 C245.3995,546.1523 247.4767,560.5122 249.5516,574.8566 C253.7015,603.5455 257.8425,632.1725 259.813,645.793 " fill="none" id="UserMicroservice-changeAllergies" style="stroke:#181818;stroke-width:1.0;"/></g><!--MD5=[3a5055fb0dfa86e1a293422c2a1200f7]
reverse link OrderDatabase to orderDatabase--><g id="link_OrderDatabase_orderDatabase"><path d="M1274.2,345.378 C1274.45,391.247 1274.86,467.201 1274.97,487.742 " fill="none" id="OrderDatabase-backto-orderDatabase" style="stroke:#181818;stroke-width:1.0;stroke-dasharray:7.0,7.0;"/><polygon fill="#181818" points="1274.17,340.214,1270.2189,349.2356,1274.1971,345.2139,1278.2188,349.1922,1274.17,340.214" style="stroke:#181818;stroke-width:1.0;"/><text fill="#000000" font-family="sans-serif" font-size="13" lengthAdjust="spacing" textLength="76" x="1276" y="403.5669">save orders</text></g><!--MD5=[d923bbf1953a5d4ee9797251673d5e32]
reverse link CouponsDatabase to couponsDatabase--><g id="link_CouponsDatabase_couponsDatabase"><path d="M1430.66,345.099 C1419.92,390.938 1402.06,467.159 1397.23,487.742 " fill="none" id="CouponsDatabase-backto-couponsDatabase" style="stroke:#181818;stroke-width:1.0;stroke-dasharray:7.0,7.0;"/><polygon fill="#181818" points="1431.8,340.214,1425.8545,348.0658,1430.6607,345.0825,1433.644,349.8887,1431.8,340.214" style="stroke:#181818;stroke-width:1.0;"/><text fill="#000000" font-family="sans-serif" font-size="13" lengthAdjust="spacing" textLength="89" x="1425" y="403.5669">save coupons</text></g><!--MD5=[5988d3c5dea601e14718b1894b6332a6]
link createOrder to orderOutside--><g id="link_createOrder_orderOutside"><path d="M3452.1,47.822 C3465.72,103.942 3535.67,428.623 3365,552 C3328.48,578.402 1798.79,577.134 1688.29,577.008 " fill="none" id="createOrder-orderOutside" style="stroke:#181818;stroke-width:1.0;"/></g><!--MD5=[aab62a47e312902c14a6b762b133b352]
link deleteOrder to orderOutside--><g id="link_deleteOrder_orderOutside"><path d="M3589.76,47.507 C3594.49,102.877 3614.26,430.261 3434,552 C3395.08,578.283 1800.29,577.121 1688.2,577.007 " fill="none" id="deleteOrder-orderOutside" style="stroke:#181818;stroke-width:1.0;"/></g><!--MD5=[bb970ca9f553510d49e79a2ee13e0470]
link getOrders to orderOutside--><g id="link_getOrders_orderOutside"><path d="M3719.82,47.578 C3718.06,103.427 3699.61,433.462 3508,552 C3466.34,577.775 1801.84,577.082 1688.11,577.005 " fill="none" id="getOrders-orderOutside" style="stroke:#181818;stroke-width:1.0;"/></g><!--MD5=[0f05108cd774573604e813f66bed5887]
link getAllOrders to orderOutside--><g id="link_getAllOrders_orderOutside"><path d="M3313.71,47.831 C3338.09,104.009 3469.47,429.007 3302,552 C3267.04,577.677 1794.43,577.082 1688.06,577.005 " fill="none" id="getAllOrders-orderOutside" style="stroke:#181818;stroke-width:1.0;"/></g><!--MD5=[9572f94c551c015ef501b2a30e19c587]
link outsideFood to addFood--><g id="link_outsideFood_addFood"><path d="M3026.34,314.89 C3020.35,333.464 2998.05,395.442 2958,428 C2897.66,477.054 2798.34,489.911 2773.02,492.461 " fill="none" id="outsideFood-addFood" style="stroke:#181818;stroke-width:1.0;"/></g><!--MD5=[2404106b3c9215bdc23f3289511162f8]
link outsideFood to addFoodInterface--><g id="link_outsideFood_addFoodInterface"><path d="M3029.82,314.804 C3035.9,332.117 3056.74,388.15 3085,428 C3101.62,451.432 3127,474.048 3140.61,485.411 " fill="none" id="outsideFood-addFoodInterface" style="stroke:#181818;stroke-width:1.0;"/></g><!--MD5=[3d40ccdce24166b8bf6fe272e35a8e08]
link outsideFood to addIngredient--><g id="link_outsideFood_addIngredient"><path d="M3021.27,311.871 C3002.2,318.791 2946.72,340.357 2908,370 C2880.51,391.047 2887.39,413.395 2856,428 C2830.1,440.052 2624.22,422.575 2599,436 C2577.48,447.456 2564.56,475.802 2559.94,487.655 " fill="none" id="outsideFood-addIngredient" style="stroke:#181818;stroke-width:1.0;"/></g><!--MD5=[5aee0d7072f1b7175ac8c5c13315bfd9]
link outsideFood to addIngredientInterface--><g id="link_outsideFood_addIngredientInterface"><path d="M3021.19,309.656 C2946.9,311.406 2285.67,328.036 2094,370 C2014.02,387.512 1995.61,400.134 1922,436 C1889.15,452.008 1852.73,475.652 1836.14,486.78 " fill="none" id="outsideFood-addIngredientInterface" style="stroke:#181818;stroke-width:1.0;"/></g><!--MD5=[fdd75336c80f311060346add298d5fa0]
link outsideFood to getAllFood--><g id="link_outsideFood_getAllFood"><path d="M3021.39,314.013 C3007.84,323.444 2976.31,346.337 2954,370 C2932.16,393.155 2940.04,412.939 2912,428 C2874.58,448.104 2761.01,421.726 2721,436 C2689.62,447.195 2660.44,476.212 2649.53,487.956 " fill="none" id="outsideFood-getAllFood" style="stroke:#181818;stroke-width:1.0;"/></g><!--MD5=[eec211e833e716c317b149a5bc8107bc]
link outsideFood to getAllFoodInterface--><g id="link_outsideFood_getAllFoodInterface"><path d="M3021.47,309.711 C2955.16,311.901 2402.71,331.156 2243,370 C2169.85,387.791 2153.13,400.025 2087,436 C2058.51,451.496 2027.58,474.163 2012.44,485.687 " fill="none" id="outsideFood-getAllFoodInterface" style="stroke:#181818;stroke-width:1.0;"/></g><!--MD5=[6806a913a03e05ec5d5a6a69e958f03d]
link outsideFood to getAllIngredients--><g id="link_outsideFood_getAllIngredients"><path d="M3021.27,311.748 C2997.83,319.584 2917.71,346.494 2852,370 C2782.35,394.914 2768.53,413.452 2696,428 C2652.39,436.748 2538.59,423.173 2496,436 C2459.09,447.118 2421.9,476.18 2407.86,487.945 " fill="none" id="outsideFood-getAllIngredients" style="stroke:#181818;stroke-width:1.0;"/></g><!--MD5=[ebab769135a7b0604a4993c446b39dbf]
link outsideFood to getAllIngredientsInterface--><g id="link_outsideFood_getAllIngredientsInterface"><path d="M3021.39,309.521 C2958.63,309.8 2467.47,313.78 2334,370 C2270.93,396.567 2215.53,461.737 2197.31,484.771 " fill="none" id="outsideFood-getAllIngredientsInterface" style="stroke:#181818;stroke-width:1.0;"/></g><!--MD5=[64e12a04042f29e89f6b21eb01547686]
reverse link FoodDatabase to foodDatabase--><g id="link_FoodDatabase_foodDatabase"><path d="M2660,75.228 C2660,122.399 2660,201.935 2660,222.84 " fill="none" id="FoodDatabase-backto-foodDatabase" style="stroke:#181818;stroke-width:1.0;stroke-dasharray:7.0,7.0;"/><polygon fill="#181818" points="2660,70.205,2656,79.205,2660,75.205,2664,79.205,2660,70.205" style="stroke:#181818;stroke-width:1.0;"/><text fill="#000000" font-family="sans-serif" font-size="13" lengthAdjust="spacing" textLength="64" x="2661" y="136.0669">save food</text></g><!--MD5=[b2c6d0fa3d81fe27abab42e1a3299f09]
reverse link IngredientDatabase to ingredientDatabase--><g id="link_IngredientDatabase_ingredientDatabase"><path d="M2414,75.228 C2414,122.399 2414,201.935 2414,222.84 " fill="none" id="IngredientDatabase-backto-ingredientDatabase" style="stroke:#181818;stroke-width:1.0;stroke-dasharray:7.0,7.0;"/><polygon fill="#181818" points="2414,70.205,2410,79.205,2414,75.205,2418,79.205,2414,70.205" style="stroke:#181818;stroke-width:1.0;"/><text fill="#000000" font-family="sans-serif" font-size="13" lengthAdjust="spacing" textLength="106" x="2415" y="136.0669">save ingredients</text></g><!--MD5=[501056e233bd5ab8aec57cb1ec68dd86]
link authenticationDatabase to AuthenticationDatabase--><g id="link_authenticationDatabase_AuthenticationDatabase"><path d="M705.708,500.115 C714.785,517.414 744.597,575.464 763,626 C777.736,666.467 790.243,714.409 797.906,746.3622 " fill="none" id="authenticationDatabase-to-AuthenticationDatabase" style="stroke:#181818;stroke-width:1.0;"/><polygon fill="#181818" points="799.094,751.3497,800.8999,741.6678,797.9355,746.4858,793.1176,743.5214,799.094,751.3497" style="stroke:#181818;stroke-width:1.0;"/><text fill="#000000" font-family="sans-serif" font-size="13" lengthAdjust="spacing" textLength="168" x="791" y="659.5669">save userid and password</text></g><!--MD5=[5feb0bbfcb8e82443ea8d059d7649a7a]
reverse link StoreDatabase to storeDatabase--><g id="link_StoreDatabase_storeDatabase"><path d="M1120,345.378 C1120,391.247 1120,467.201 1120,487.742 " fill="none" id="StoreDatabase-backto-storeDatabase" style="stroke:#181818;stroke-width:1.0;stroke-dasharray:7.0,7.0;"/><polygon fill="#181818" points="1120,340.214,1116,349.214,1120,345.214,1124,349.214,1120,340.214" style="stroke:#181818;stroke-width:1.0;"/><text fill="#000000" font-family="sans-serif" font-size="13" lengthAdjust="spacing" textLength="75" x="1121" y="403.5669">save stores</text></g><!--MD5=[1f38ff107d231cfaac2b64104cd874eb]
link getAllStores to orderOutside--><g id="link_getAllStores_orderOutside"><path d="M3165.33,401.92 C3180.38,405.58 3209.61,415.124 3222,436 C3248.32,480.333 3258.16,515.25 3222,552 C3193.11,581.365 1792.03,577.358 1688.09,577.021 " fill="none" id="getAllStores-orderOutside" style="stroke:#181818;stroke-width:1.0;"/></g><!--MD5=[3cdcdcc46f2afeadc44c6f458a52d4f0]
link addStore to orderOutside--><g id="link_addStore_orderOutside"><path d="M3286.77,408.275 C3291.8,434.274 3303.13,514.791 3260,552 C3228.04,579.573 1794.57,577.225 1688.23,577.013 " fill="none" id="addStore-orderOutside" style="stroke:#181818;stroke-width:1.0;"/></g><!--MD5=[6a89799b32e6abd9604517d4a9d8c40a]
link outsideFood to OrderMicroservice--><g id="link_outsideFood_OrderMicroservice"><path d="M3021.25,309.457 C2934.92,308.96 2044.7,305.45 1791,370 C1741.34,382.635 1689.8375,405.377 1646.2288,427.899 C1640.7777,430.7143 1635.4499,433.5261 1630.2645,436.3143 C1627.6718,437.7084 1625.1147,439.0966 1622.5956,440.4763 C1621.336,441.1662 1620.0859,441.854 1618.8456,442.5394 C1618.2255,442.8821 1617.6078,443.2241 1616.9925,443.5656 " fill="none" id="outsideFood-OrderMicroservice" style="stroke:#181818;stroke-width:1.0;"/><text fill="#000000" font-family="sans-serif" font-size="13" lengthAdjust="spacing" textLength="124" x="1799" y="403.5669">getAllFoodInterface</text><path d="M2476.1474,322.2143 A10,10 0 0 0 2475.7671 308.0772" fill="none" style="stroke:#181818;stroke-width:1.5;"/><ellipse cx="2468.8888" cy="315.3359" fill="#FFFFFF" rx="6" ry="6" style="stroke:#181818;stroke-width:1.5;"/></g><!--MD5=[bc4aa80c3013e24eecdee1f927b8ee7a]
link AuthenticationMicroservice to UserMicroservice--><g id="link_AuthenticationMicroservice_UserMicroservice"><path d="M480.9016,637.3818 C480.6706,637.3353 480.4396,637.2887 480.2084,637.2419 C478.3592,636.8679 476.5044,636.4856 474.6446,636.0948 C470.925,635.3131 467.1859,634.4974 463.4333,633.6463 C455.9282,631.944 448.3693,630.0999 440.806,628.1021 C410.553,620.111 380.2305,609.6615 353,596 C329.1305,584.0245 306.2788,565.8857 287.3244,548.2685 C282.5858,543.8642 278.0908,539.4925 273.8843,535.2578 C271.7811,533.1405 269.7501,531.0574 267.7968,529.0216 C267.3084,528.5127 266.825,528.0067 266.3465,527.5039 " fill="none" id="AuthenticationMicroservice-UserMicroservice" style="stroke:#181818;stroke-width:1.0;"/><text fill="#000000" font-family="sans-serif" font-size="13" lengthAdjust="spacing" textLength="49" x="361" y="582.5669">register</text><path d="M356.1494,605.4911 A10,10 0 0 0 362.4911 592.8506" fill="none" style="stroke:#181818;stroke-width:1.5;"/><ellipse cx="353" cy="596" fill="#FFFFFF" rx="6" ry="6" style="stroke:#181818;stroke-width:1.5;"/></g><!--MD5=[6aa715397bf7720aa9157e2a03f505af]
link UserMicroservice to AuthenticationMicroservice--><g id="link_UserMicroservice_AuthenticationMicroservice"><path d="M285.2016,509.3728 C285.3751,509.4282 285.549,509.4837 285.7232,509.5393 C287.1169,509.9843 288.5323,510.4379 289.9683,510.8999 C292.8402,511.824 295.7942,512.7816 298.8204,513.7711 C310.9253,517.7289 324.186,522.1956 337.974,527.0551 C365.55,536.7743 395.235,548.065 422,560 C437.2585,566.804 446.2318,572.181 455.1538,577.6685 C459.6147,580.4123 464.0629,583.1836 469.2776,586.1748 C471.8849,587.6704 474.6838,589.221 477.7717,590.8505 C478.5437,591.2579 479.3338,591.6702 480.1434,592.0878 C480.3458,592.1922 480.5494,592.2969 480.7543,592.402 " fill="none" id="UserMicroservice-AuthenticationMicroservice" style="stroke:#181818;stroke-width:1.0;"/><text fill="#000000" font-family="sans-serif" font-size="13" lengthAdjust="spacing" textLength="60" x="496" y="582.5669">authorize</text><path d="M376.2648,533.543 A10,10 0 0 0 371.1375 546.723" fill="none" style="stroke:#181818;stroke-width:1.5;"/><ellipse cx="380.2911" cy="542.6966" fill="#FFFFFF" rx="6" ry="6" style="stroke:#181818;stroke-width:1.5;"/></g><!--MD5=[88627ab46edd65fb8f9055f029386ef2]
link OrderMicroservice to AuthenticationMicroservice--><g id="link_OrderMicroservice_AuthenticationMicroservice"><path d="M991.0722,557.1355 C988.3416,557.1456 985.6631,557.1595 983.0393,557.1775 C972.5443,557.2493 962.9257,557.3857 954.3595,557.6028 C937.2272,558.0368 924.3046,558.7933 917,560 C890.1545,564.435 838.1555,580.388 785.449,597.9245 C772.2724,602.3086 759.0515,606.7917 746.1684,611.2186 C739.7269,613.432 733.3698,615.6313 727.1449,617.7972 C725.5886,618.3387 724.0407,618.8781 722.5017,619.415 C722.117,619.5493 721.7328,619.6834 721.3492,619.8173 " fill="none" id="OrderMicroservice-AuthenticationMicroservice" style="stroke:#181818;stroke-width:1.0;"/><text fill="#000000" font-family="sans-serif" font-size="13" lengthAdjust="spacing" textLength="51" x="925" y="582.5669">validate</text><path d="M869.6987,578.8425 A10,10 0 0 0 865.7156 565.2728" fill="none" style="stroke:#181818;stroke-width:1.5;"/><ellipse cx="860.9224" cy="574.0492" fill="#FFFFFF" rx="6" ry="6" style="stroke:#181818;stroke-width:1.5;"/></g><!--MD5=[12582e18224ba79a7ec141efae9f0da2]
link FoodMicroservice to AuthenticationMicroservice--><g id="link_FoodMicroservice_AuthenticationMicroservice"><path d="M2302.9514,255.2444 C2300.1228,255.243 2297.288,255.2414 2294.4473,255.2396 C2288.7659,255.236 2283.0607,255.2317 2277.3328,255.2267 C2254.4214,255.2068 2231.1474,255.1761 2207.5837,255.1385 C2113.3288,254.9879 2014.4378,254.7257 1915.5662,254.5918 C1520.08,254.056 1124.905,255.573 1028,274.5 C833.345,312.52 724.027,272.336 612,436 C600.3788,452.978 594.3116,472.5501 591.9665,492.8545 C591.9299,493.1717 591.8941,493.4892 591.8593,493.8068 " fill="none" id="FoodMicroservice-AuthenticationMicroservice" style="stroke:#181818;stroke-width:1.0;"/><text fill="#000000" font-family="sans-serif" font-size="13" lengthAdjust="spacing" textLength="51" x="676" y="403.5669">validate</text><path d="M1367.0033,264.1993 A10,10 0 0 0 1366.7671 250.0592" fill="none" style="stroke:#181818;stroke-width:1.5;"/><ellipse cx="1359.8152" cy="257.2473" fill="#FFFFFF" rx="6" ry="6" style="stroke:#181818;stroke-width:1.5;"/></g><!--MD5=[e0bd0db1b06ff0430459e83f0d2b6883]
@startuml
component UserMicroservice {
    portin userDatabase
}

component UserDatabase <<database>> {

}

UserDatabase <.. userDatabase : save users

UserMicroservice - - createUser
UserMicroservice - - deleteUser
UserMicroservice - - changeAllergies

component OrderMicroservice {
    component Order {
        portin orderDatabase
    }

    component Coupons {
        portin couponsDatabase
    }

    component StoreMicroservice {
        portin storeDatabase
    }

    portout orderOutside
}

component OrderDatabase <<database>> {
        portin orderDatabase
}

component CouponsDatabase <<database>> {
        portin couponsDatabase
}

component StoreDatabase <<database>> {

}

OrderDatabase <.. orderDatabase : save orders
CouponsDatabase <.. couponsDatabase : save coupons

createOrder - - - - orderOutside
deleteOrder - - - - orderOutside
getOrders - - - - orderOutside
getAllOrders - - - - orderOutside

component FoodMicroservice {
    component Food {
        portin foodDatabase
        portout addFood

        portout getAllFood
    }

    component Ingredient {
        portin ingredientDatabase
        portout addIngredient

        portout getAllIngredients
    }

    portout outsideFood
}

component FoodDatabase <<database>> {
    portin foodDatabase
}

component IngredientDatabase <<database>> {
    portin ingredientDatabase
}

outsideFood - - addFood
outsideFood - - addFoodInterface

outsideFood - - addIngredient
outsideFood - - addIngredientInterface

outsideFood - - getAllFood
outsideFood - - getAllFoodInterface

outsideFood - - getAllIngredients
outsideFood - - getAllIngredientsInterface



FoodDatabase <.. foodDatabase : save food
IngredientDatabase <.. ingredientDatabase : save ingredients


component AuthenticationMicroservice {
    portin authenticationDatabase
}

component AuthenticationDatabase <<database>> {

}

authenticationDatabase - - -> AuthenticationDatabase : save userid and password

StoreDatabase <.. storeDatabase : save stores

getAllStores - - orderOutside
addStore - - orderOutside

OrderMicroservice -u0)- outsideFood : getAllFoodInterface


UserMicroservice -u0)- AuthenticationMicroservice : register
AuthenticationMicroservice -u0)- UserMicroservice : authorize


AuthenticationMicroservice -u0)- OrderMicroservice : validate
AuthenticationMicroservice -u0)- FoodMicroservice : validate
@enduml

PlantUML version 1.2022.14beta7(Unknown compile time)
(GPL source distribution)
Java Runtime: Java(TM) SE Runtime Environment
JVM: Java HotSpot(TM) 64-Bit Server VM
Default Encoding: UTF-8
Language: en
Country: US
--></g></svg>